<svg xmlns="http://www.w3.org/2000/svg" width="255" height="226" fill="none" viewBox="0 0 255 226">
  <path fill="#DCEAF7" d="M237.913 191.414c-1.739 0-3.417.264-4.995.755h-.878a17.098 17.098 0 00-2.981-4.004c-4.642-4.643-11.261-6.033-16.972-4.166a9.429 9.429 0 00-8.288-4.928 9.4 9.4 0 00-2.446.332 15.416 15.416 0 00-3.439-5.225c-6.05-6.05-15.859-6.05-21.909 0a15.412 15.412 0 00-4.233 7.91 8.71 8.71 0 00-2.326-.323 8.752 8.752 0 00-7.734 4.655c-2.106-3.587-5.993-6.002-10.453-6.002-.873 0-1.723.097-2.544.272-15.364-13.061-16.554-50.547-14.458-59.769h-7.966s1.705 30.048-7.775 49.003c-4.882-.945-10.131.474-13.912 4.254a15.451 15.451 0 00-2.898 4.037 9.403 9.403 0 00-2.987-.491 9.43 9.43 0 00-9.43 9.43c0 .381.028.755.073 1.124a14.702 14.702 0 00-8.156-2.471c-3.879 0-7.394 1.502-10.033 3.942a12.064 12.064 0 00-7.48-2.595c-2.921 0-5.587 1.048-7.677 2.77a16.297 16.297 0 00-4.785-11.452c-6.386-6.386-16.74-6.386-23.127 0a16.195 16.195 0 00-3.792 6.006c-.12-.005-.24-.018-.361-.018-4.239 0-7.734 3.026-8.542 7.026C6.78 192.205 0 199.423 0 208.236c0 9.291 7.531 16.822 16.822 16.822.8 0 1.581-.075 2.351-.183h215.611v-.118c1.015.191 2.059.301 3.129.301 9.291 0 16.822-7.531 16.822-16.822 0-9.29-7.531-16.822-16.822-16.822z"/>
  <path fill="#EB6F5E" d="M178.405 18.118l2.622 4.794 4.795 2.622-4.795 2.623-2.622 4.794-2.622-4.794-4.795-2.623 4.795-2.622 2.622-4.794zm0-4.168l-1.755 3.208-2.341 4.28-4.281 2.342-3.208 1.754 3.208 1.755 4.281 2.341 2.341 4.28 1.755 3.21 1.755-3.21 2.341-4.28 4.28-2.34 3.209-1.756-3.209-1.754-4.28-2.341-2.341-4.281-1.755-3.209zM61.782 120.163l2.622 4.794 4.795 2.623-4.795 2.622-2.622 4.794-2.622-4.794-4.795-2.622 4.795-2.623 2.622-4.794zm0-4.168l-1.755 3.208-2.341 4.281-4.28 2.341-3.21 1.755 3.21 1.754 4.28 2.341 2.341 4.281 1.755 3.208 1.755-3.208 2.34-4.281 4.282-2.341 3.208-1.754-3.209-1.755-4.28-2.341-2.341-4.281-1.755-3.208zM192.354 4.168l1.839 3.362 3.361 1.838-3.361 1.839-1.839 3.361-1.838-3.361-3.362-1.839 3.362-1.838 1.838-3.362zm0-4.168L190.6 3.208l-1.558 2.848-2.847 1.557-3.209 1.755 3.209 1.755 2.847 1.557 1.558 2.848 1.754 3.208 1.755-3.208 1.558-2.848 2.847-1.557 3.208-1.755-3.208-1.755-2.847-1.557-1.558-2.848L192.354 0z"/>
  <path fill="#DCEAF7" d="M61.29 81.906a6.492 6.492 0 003.25-5.623 6.5 6.5 0 00-7.782-6.372c-.955-5.007-5.35-8.794-10.635-8.794-4.463 0-8.293 2.7-9.952 6.555a7.64 7.64 0 00-.88-.055 7.583 7.583 0 00-7.584 7.583 7.577 7.577 0 004.333 6.843s16.25 2.907 29.25-.137zM231.431 71.21a5.57 5.57 0 003.186-5.032 5.576 5.576 0 00-5.576-5.575c-.219 0-.435.015-.647.04a7.965 7.965 0 00-7.318-4.82c-3.886 0-7.118 2.785-7.82 6.467a4.779 4.779 0 00-5.721 4.685c0 1.768.962 3.308 2.389 4.135 0 0 7.488 3.694 21.507.1zM87.59 25.712a3.262 3.262 0 00-1.779-6.188 4.664 4.664 0 00-8.864.964 2.799 2.799 0 00-1.95 5.165c-.001 0 6.394 2.57 12.593.059zM196.793 118.196c-1.195-.602-2.024-1.891-2.024-3.387 0-2.073 1.586-3.754 3.542-3.754.14 0 .276.011.412.028.775-1.909 2.564-3.245 4.648-3.245 2.469 0 4.522 1.874 4.968 4.353.193-.041.393-.063.598-.063 1.677 0 3.037 1.44 3.037 3.217 0 1.19-.612 2.227-1.519 2.784 0 0-6.937 2.954-13.662.067z"/>
  <path fill="#F9B59E" d="M142.363 33.798c-2.69-3.642-5.84-6.933-9.363-9.718a5.596 5.596 0 00-6.904-.04c-3.45 2.666-6.551 5.816-9.228 9.303 3.939 1.286 8.5 1.986 13.25 2.014 4.292.024 8.537-.519 12.245-1.56z"/>
  <path fill="#F9B59E" d="M150.573 54.153c-.405-3.804-1.307-7.628-3.335-12.356-1.001-2.333-2.414-4.47-3.852-6.56a.832.832 0 01-.326.189c-3.847 1.107-8.243 1.688-12.726 1.682l-.226-.001c-5.152-.029-10.106-.82-14.34-2.285a51.363 51.363 0 00-4.1 6.773c-2.716 5.413-3.526 11.152-3.778 17.353-.087.33-.147.668-.147 1.024v5.677l-.028.904c-.001.057.019.109.028.164v34.55a3.193 3.193 0 003.193 3.193h4.94l-.127.408h.312c.046.605.131 1.205.25 1.783l5.733 15.149 16.426-.049 4.592-13.844c.25-.938.559-2.199.697-3.386.096-.019.192-.043.288-.061h3.832a3.193 3.193 0 003.192-3.193V59.973c0-3.468-.181-5.145-.498-5.82z"/>
  <path fill="#EF5B4B" d="M130.02 72.884h-.015c-1.663 0-2.995 1.615-4.088 9.438-.753 5.38-1.19 12.524-1.232 20.116-.049 8.894.34 29.583 5.005 29.61h.015c1.662 0 2.992-1.615 4.086-9.438.753-5.381 1.19-12.525 1.232-20.116.049-8.894-.339-29.584-5.003-29.61zM164.118 80.881l-13.254-16.506a1.389 1.389 0 00-1.95-.213 1.371 1.371 0 00-.506.994h-.011l-2.137 33.617.012.001c-.011.158-.005.32.042.48l7.379 25.011c.175.586.711.99 1.324.993h.02c3.277 0 5.472-4.178 5.486-6.927.037-.76 1.24-8.902 2.302-16.086 1.716-11.604 2.523-17.15 2.527-17.871a5.481 5.481 0 00-1.234-3.493zM111.097 101.182l-1.12-34.647h-.014a1.367 1.367 0 00-.485-1.022 1.389 1.389 0 00-1.954.18L93.938 82.044c-.82.975-1.276 2.216-1.276 3.637l3.49 34.755a5.482 5.482 0 005.445 5.505h.008c.591 0 1.116-.373 1.311-.931l8.105-23.328a1.38 1.38 0 00.073-.5h.003zM142.457 59.635c1.684-6.614-2.312-13.341-8.925-15.026-6.614-1.684-13.341 2.312-15.025 8.926-1.685 6.614 2.311 13.34 8.925 15.025 6.613 1.684 13.34-2.312 15.025-8.925z"/>
  <path fill="#fff" d="M140.898 56.319a1.262 1.262 0 00-1.735-.392 1.262 1.262 0 00-.393 1.733l.002.002a1.258 1.258 0 002.126-1.343zM121.939 55.606a1.26 1.26 0 00-1.734-.393 1.262 1.262 0 00-.393 1.733 1.25 1.25 0 001.066.589 1.256 1.256 0 001.061-1.93zM138.374 49.514a1.246 1.246 0 00-.785-.557 1.236 1.236 0 00-.95.162 1.25 1.25 0 00-.555.785c-.074.327-.017.665.163.95.179.284.458.48.786.554a1.244 1.244 0 00.948-.162c.285-.18.481-.459.555-.785a1.245 1.245 0 00-.162-.947zM124.465 62.415a1.246 1.246 0 00-.785-.557 1.267 1.267 0 00-1.507.949c-.073.327-.015.664.164.947a1.251 1.251 0 001.066.588c.236 0 .466-.066.669-.195.285-.18.481-.458.555-.784a1.245 1.245 0 00-.162-.948zM131.776 46.485a1.265 1.265 0 00-1.736-.395 1.262 1.262 0 00-.391 1.735 1.259 1.259 0 001.733.393h.002c.584-.37.76-1.148.392-1.733zM131.062 65.441a1.258 1.258 0 10-2.126 1.345 1.258 1.258 0 002.126-1.345zM137.084 62.362a1.234 1.234 0 00-.949.163c-.285.18-.481.459-.555.785-.075.326-.017.663.162.947a1.245 1.245 0 001.065.588c.572 0 1.093-.396 1.227-.978v-.002a1.26 1.26 0 00-.95-1.503zM130.482 63.722a7.137 7.137 0 007.137-7.137 7.137 7.137 0 10-14.275 0 7.138 7.138 0 007.138 7.137zM124.969 49.01a1.243 1.243 0 00-.785-.558 1.269 1.269 0 00-1.507.95 1.26 1.26 0 001.9 1.34c.284-.18.48-.458.555-.787a1.242 1.242 0 00-.163-.946z"/>
</svg>
